<?xml version="1.0" encoding="utf-8"?>
<!-- Generator: Adobe Illustrator 27.5.0, SVG Export Plug-In . SVG Version: 6.00 Build 0)  -->
<svg version="1.1" xmlns="http://www.w3.org/2000/svg" xmlns:xlink="http://www.w3.org/1999/xlink" x="0px" y="0px"
	 viewBox="0 0 500 500" style="enable-background:new 0 0 500 500;" xml:space="preserve">
<g id="BACKGROUND">
	<g id="background">
		<rect style="fill:#FFFFFF;" width="500" height="500"/>
	</g>
</g>
<g id="OBJECTS">
	<circle style="fill:#F3F5F6;" cx="250" cy="210.7" r="108.029"/>
	<g>
		<g>
			<g>
				<path style="fill:#302C4D;" d="M261.077,99.743L261.077,99.743c11.277,3.231,20.488,11.388,25.058,22.191l14.388,34.011
					c3.068,7.252,3.848,15.269,2.235,22.976l-1.136,5.428l0,0c8.078,6.34,14.094,14.933,17.288,24.692l15.234,46.546L250,323.212
					l-84.143-67.625l15.234-46.546c3.194-9.759,9.21-18.352,17.288-24.692l0,0l-1.136-5.428c-1.613-7.708-0.833-15.724,2.235-22.976
					l14.388-34.011c4.57-10.803,13.781-18.961,25.058-22.191h0C246.162,97.669,253.838,97.669,261.077,99.743z"/>
				<path style="fill:#657E92;" d="M262.878,134.966l20.564,7.695c2.973,1.113,5.195,3.635,5.925,6.725l2.785,11.799
					c2.045,8.664-0.389,17.775-6.481,24.265l-6.594,7.023c-1.377,1.467,0.36,3.733,2.134,2.785l20.41-10.909l1.136-5.428
					c1.613-7.708,0.833-15.724-2.235-22.976l-14.388-34.011c-4.57-10.803-13.781-18.961-25.058-22.191h0
					c-7.239-2.074-14.915-2.074-22.154,0h0c-11.277,3.231-20.487,11.388-25.058,22.191l-14.388,34.011
					c-3.068,7.252-3.848,15.269-2.235,22.976l1.136,5.428l20.41,10.909c1.775,0.949,3.512-1.318,2.134-2.785l-6.594-7.023
					c-6.093-6.49-8.526-15.602-6.481-24.265l2.785-11.799c0.729-3.09,2.952-5.612,5.925-6.725l20.564-7.695
					C245.426,131.858,254.574,131.858,262.878,134.966z"/>
				<path style="fill:#657E92;" d="M334.143,255.587l-17.539-33.722c-3.616-6.951-10.061-12-17.676-13.845l-6.082-1.474
					l8.776-22.197l0,0c8.078,6.34,14.094,14.933,17.288,24.692L334.143,255.587z"/>
				<path style="fill:#657E92;" d="M165.857,255.587l17.539-33.722c3.616-6.951,10.061-12,17.676-13.845l6.083-1.474l-8.776-22.197
					l0,0c-8.078,6.34-14.094,14.933-17.288,24.692L165.857,255.587z"/>
				<g>
					<path style="fill:#F3F5F6;" d="M237.122,134.966l-20.169,7.547l4.493,26.561c2.026,11.981,11.848,15.735,16.548,18.341
						c3.734,2.071,7.87,3.106,12.006,3.106v-57.887C245.637,132.635,241.274,133.412,237.122,134.966z"/>
					<path style="fill:#A3B2BE;" d="M262.878,134.966c-4.152-1.554-8.515-2.331-12.878-2.331v57.887
						c4.136,0,8.272-1.035,12.006-3.106c4.813-2.669,14.55-6.529,16.548-18.341l4.492-26.561L262.878,134.966z"/>
				</g>
				<path style="fill:#E66239;" d="M257.102,155.416l1.722,1.686c3.278,3.21,7.683,5.008,12.271,5.008h8.637l3.315-19.597
					l-20.169-7.547c-8.304-3.107-17.452-3.107-25.756,0l-20.169,7.547l3.315,19.597h8.637c4.588,0,8.993-1.798,12.271-5.008
					l1.722-1.686C246.844,151.551,253.156,151.551,257.102,155.416z"/>
				<path style="fill:#302C4D;" d="M276.165,145.755c-2.293-1.65-5.629-2.12-8.849-0.962c-3.22,1.157-5.494,3.643-6.212,6.375
					c2.293,1.65,5.629,2.12,8.849,0.962C273.173,150.973,275.447,148.487,276.165,145.755z"/>
				<path style="fill:#302C4D;" d="M223.835,145.755c2.293-1.65,5.629-2.12,8.849-0.962c3.22,1.157,5.494,3.643,6.212,6.375
					c-2.293,1.65-5.629,2.12-8.849,0.962C226.827,150.973,224.553,148.487,223.835,145.755z"/>
			</g>
			<path style="fill:#E66239;" d="M309.659,296.551H190.341c-5.853,0-10.598-4.745-10.598-10.598v-60.731
				c0-5.853,4.745-10.598,10.598-10.598h119.319c5.853,0,10.598,4.745,10.598,10.598v60.731
				C320.257,291.806,315.513,296.551,309.659,296.551z"/>
		</g>
		<text transform="matrix(1 0 0 1 215.8271 269.8701)" style="fill:#F3F5F6; font-family:'Montserrat-Bold'; font-size:42.9847px;">&lt;/&gt;</text>
	</g>
	<g>
		<text transform="matrix(1 0 0 1 167.8135 385.5186)"><tspan x="0" y="0" style="fill:#E66239; font-family:'Montserrat-Bold'; font-size:21.87px;">hacker</tspan><tspan x="97.386" y="0" style="fill:#302C4D; font-family:'Montserrat-Bold'; font-size:21.87px;">logo</tspan></text>
		
			<text transform="matrix(1 0 0 1 192.8145 404.959)" style="fill:#A3B2BE; font-family:'Montserrat-Medium'; font-size:12.96px; letter-spacing:1;">tagline here</text>
	</g>
</g>
</svg>
